<svg width="61" height="61" viewBox="0 0 61 61" fill="none" xmlns="http://www.w3.org/2000/svg">
<g clip-path="url(#clip0_3_2)">
<rect y="0.346775" width="60" height="60" rx="20" fill="black"/>
<path fill-rule="evenodd" clip-rule="evenodd" d="M18.8437 16.3155V15.3468H20.7813V16.3155C20.7813 18.4468 22.525 20.1905 24.6562 20.1905H25.625V22.128H24.6562C23.6285 22.128 22.6429 22.5363 21.9162 23.263C21.1895 23.9897 20.7813 24.9753 20.7813 26.003V26.9718H18.8437V26.003C18.8437 24.9753 18.4355 23.9897 17.7088 23.263C16.9821 22.5363 15.9965 22.128 14.9687 22.128H14V20.1905H14.9687C15.9965 20.1905 16.9821 19.7823 17.7088 19.0556C18.4355 18.3289 18.8437 17.3432 18.8437 16.3155ZM42.0937 24.0655V25.0343H40.1563V24.0655C40.1563 23.5517 39.9521 23.0589 39.5888 22.6955C39.2254 22.3322 38.7326 22.128 38.2187 22.128H37.25V20.1905H38.2187C38.7326 20.1905 39.2254 19.9864 39.5888 19.623C39.9521 19.2597 40.1563 18.7669 40.1563 18.253V17.2843H42.0937V18.253C42.0937 18.7669 42.2979 19.2597 42.6612 19.623C43.0246 19.9864 43.5174 20.1905 44.0312 20.1905H45V22.128H44.0312C43.5174 22.128 43.0246 22.3322 42.6612 22.6955C42.2979 23.0589 42.0937 23.5517 42.0937 24.0655ZM30.4687 23.0968L30.275 24.8986C30.0506 27.1159 29.0686 29.188 27.4945 30.7656C25.9204 32.3433 23.8505 33.3299 21.6338 33.5593L19.8125 33.753V35.6905L21.6144 35.8843C23.8381 36.1052 25.917 37.0882 27.4989 38.6666C29.0809 40.2449 30.0684 42.3217 30.2944 44.5449L30.4687 46.3468H32.4063L32.6 44.5449C32.821 42.3212 33.8039 40.2422 35.3823 38.6603C36.9607 37.0784 39.0374 36.0908 41.2606 35.8649L43.0625 35.6905V33.753L41.2606 33.5593C39.0434 33.3349 36.9713 32.3529 35.3936 30.7788C33.816 29.2047 32.8294 27.1348 32.6 24.918L32.4063 23.0968H30.4687Z" fill="white"/>
</g>
<defs>
<clipPath id="clip0_3_2">
<rect width="60.0242" height="60.0242" fill="white"/>
</clipPath>
</defs>
</svg>
